<svg xmlns="http://www.w3.org/2000/svg" version="1.1" xmlns:xlink="http://www.w3.org/1999/xlink" viewBox="0 0 200 200"><rect width="200" height="200" fill="url('#gradient')"></rect><defs><linearGradient id="gradient" gradientTransform="rotate(45 0.5 0.5)"><stop offset="0%" stop-color="#000000"></stop><stop offset="100%" stop-color="#000000"></stop></linearGradient></defs><g><g fill="#eeeeee" transform="matrix(2.162885749554245,0,0,2.162885749554245,21.685854078928422,111.71206424296139)" stroke="#597dcd" stroke-width="0"><path d="M11.65-12.46L4.92-2.64L11.72-2.64L11.72 0L0.64 0L0.64-1.81L7.42-11.57L0.61-11.57L0.61-14.22L11.65-14.22L11.65-12.46ZM16.59-10.57L16.59 0L13.29 0L13.29-10.57L16.59-10.57ZM13.10-13.29L13.10-13.29Q13.10-13.99 13.60-14.44Q14.11-14.89 14.92-14.89Q15.73-14.89 16.24-14.44Q16.75-13.99 16.75-13.29Q16.75-12.59 16.24-12.14Q15.73-11.69 14.92-11.69Q14.11-11.69 13.60-12.14Q13.10-12.59 13.10-13.29ZM28.43-5.36L28.43-5.21Q28.43-2.74 27.32-1.27Q26.21 0.20 24.33 0.20L24.33 0.20Q22.87 0.20 21.93-0.87L21.93-0.87L21.93 4.06L18.64 4.06L18.64-10.57L21.72-10.57L21.82-9.59Q22.76-10.76 24.31-10.76L24.31-10.76Q26.26-10.76 27.34-9.32Q28.43-7.88 28.43-5.36L28.43-5.36ZM25.14-5.06L25.14-5.41Q25.14-8.22 23.50-8.22L23.50-8.22Q22.32-8.22 21.93-7.38L21.93-7.38L21.93-3.22Q22.36-2.34 23.52-2.34L23.52-2.34Q25.09-2.34 25.14-5.06L25.14-5.06ZM30.03-14.22L34.53-14.22L37.71-4.33L40.87-14.22L45.38-14.22L45.38 0L41.94 0L41.94-3.32L42.28-10.12L38.84 0L36.57 0L33.13-10.13L33.46-3.32L33.46 0L30.03 0L30.03-14.22ZM56.65 0L53.36 0Q53.18-0.32 53.05-0.95L53.05-0.95Q52.14 0.20 50.51 0.20L50.51 0.20Q49.01 0.20 47.97-0.71Q46.92-1.61 46.92-2.98L46.92-2.98Q46.92-4.70 48.19-5.58Q49.46-6.46 51.88-6.46L51.88-6.46L52.90-6.46L52.90-7.01Q52.90-8.47 51.64-8.47L51.64-8.47Q50.47-8.47 50.47-7.31L50.47-7.31L47.18-7.31Q47.18-8.85 48.48-9.80Q49.79-10.76 51.81-10.76Q53.83-10.76 55-9.78Q56.17-8.79 56.20-7.07L56.20-7.07L56.20-2.39Q56.22-0.94 56.65-0.17L56.65-0.17L56.65 0ZM51.30-2.15L51.30-2.15Q51.91-2.15 52.32-2.41Q52.72-2.68 52.90-3.01L52.90-3.01L52.90-4.70L51.94-4.70Q50.22-4.70 50.22-3.15L50.22-3.15Q50.22-2.71 50.53-2.43Q50.83-2.15 51.30-2.15ZM64.47-10.64L64.41-7.59L63.33-7.67Q61.78-7.67 61.34-6.69L61.34-6.69L61.34 0L58.05 0L58.05-10.57L61.13-10.57L61.24-9.21Q62.07-10.76 63.55-10.76L63.55-10.76Q64.08-10.76 64.47-10.64L64.47-10.64ZM66.63-13.19L69.92-13.19L69.92-10.57L71.66-10.57L71.66-8.28L69.92-8.28L69.92-3.45Q69.92-2.85 70.14-2.62Q70.35-2.38 70.99-2.38L70.99-2.38Q71.47-2.38 71.81-2.44L71.81-2.44L71.81-0.09Q70.92 0.20 69.95 0.20L69.95 0.20Q68.25 0.20 67.44-0.61Q66.63-1.41 66.63-3.04L66.63-3.04L66.63-8.28L65.28-8.28L65.28-10.57L66.63-10.57L66.63-13.19Z"></path></g></g></svg>